<svg xmlns="http://www.w3.org/2000/svg" xmlns:xlink="http://www.w3.org/1999/xlink" width="1080" zoomAndPan="magnify" viewBox="0 0 810 809.999993" height="1080" preserveAspectRatio="xMidYMid meet" version="1.0"><defs><g/><clipPath id="bbc83f660c"><path d="M 176.980469 81.234375 L 654.148438 81.234375 L 654.148438 558.402344 L 176.980469 558.402344 Z M 176.980469 81.234375 " clip-rule="nonzero"/></clipPath><clipPath id="9b52c96966"><path d="M 415.566406 81.234375 C 283.796875 81.234375 176.980469 188.054688 176.980469 319.820312 C 176.980469 451.585938 283.796875 558.402344 415.566406 558.402344 C 547.332031 558.402344 654.148438 451.585938 654.148438 319.820312 C 654.148438 188.054688 547.332031 81.234375 415.566406 81.234375 Z M 415.566406 81.234375 " clip-rule="nonzero"/></clipPath><clipPath id="8023d2fc41"><path d="M 176.980469 81.234375 L 653.980469 81.234375 L 653.980469 558.234375 L 176.980469 558.234375 Z M 176.980469 81.234375 " clip-rule="nonzero"/></clipPath><clipPath id="9309f10bc9"><path d="M 415.5625 81.234375 C 283.796875 81.234375 176.980469 188.050781 176.980469 319.816406 C 176.980469 451.582031 283.796875 558.398438 415.5625 558.398438 C 547.328125 558.398438 654.144531 451.582031 654.144531 319.816406 C 654.144531 188.050781 547.328125 81.234375 415.5625 81.234375 Z M 415.5625 81.234375 " clip-rule="nonzero"/></clipPath></defs><g clip-path="url(#bbc83f660c)"><g clip-path="url(#9b52c96966)"><path fill="#333333" d="M 176.980469 81.234375 L 654.148438 81.234375 L 654.148438 558.402344 L 176.980469 558.402344 Z M 176.980469 81.234375 " fill-opacity="1" fill-rule="nonzero"/></g></g><g clip-path="url(#8023d2fc41)"><g clip-path="url(#9309f10bc9)"><path stroke-linecap="butt" transform="matrix(0.75, 0, 0, 0.75, 176.980951, 81.235372)" fill="none" stroke-linejoin="miter" d="M 318.108749 -0.00132922 C 142.42124 -0.00132922 -0.000642462 142.420553 -0.000642462 318.108062 C -0.000642462 493.795571 142.42124 636.217453 318.108749 636.217453 C 493.796257 636.217453 636.21814 493.795571 636.21814 318.108062 C 636.21814 142.420553 493.796257 -0.00132922 318.108749 -0.00132922 Z M 318.108749 -0.00132922 " stroke="#333333" stroke-width="2" stroke-opacity="1" stroke-miterlimit="4"/></g></g><path fill="#ffffff" d="M 625.074219 319.828125 C 625.074219 323.804688 624.976562 327.78125 624.78125 331.753906 C 624.585938 335.726562 624.292969 339.691406 623.90625 343.648438 C 623.515625 347.609375 623.027344 351.554688 622.445312 355.488281 C 621.859375 359.421875 621.179688 363.339844 620.40625 367.242188 C 619.628906 371.144531 618.757812 375.023438 617.792969 378.882812 C 616.824219 382.742188 615.765625 386.574219 614.609375 390.378906 C 613.453125 394.1875 612.207031 397.960938 610.867188 401.707031 C 609.527344 405.453125 608.097656 409.160156 606.574219 412.835938 C 605.050781 416.511719 603.441406 420.148438 601.738281 423.742188 C 600.039062 427.339844 598.25 430.890625 596.375 434.398438 C 594.5 437.90625 592.542969 441.367188 590.496094 444.777344 C 588.453125 448.191406 586.324219 451.550781 584.113281 454.855469 C 581.902344 458.164062 579.613281 461.414062 577.246094 464.609375 C 574.875 467.804688 572.429688 470.9375 569.90625 474.015625 C 567.382812 477.089844 564.785156 480.101562 562.113281 483.046875 C 559.441406 485.996094 556.699219 488.875 553.886719 491.6875 C 551.074219 494.5 548.195312 497.242188 545.25 499.914062 C 542.300781 502.582031 539.289062 505.179688 536.214844 507.703125 C 533.140625 510.226562 530.007812 512.675781 526.8125 515.042969 C 523.617188 517.414062 520.363281 519.703125 517.058594 521.914062 C 513.75 524.121094 510.390625 526.25 506.980469 528.296875 C 503.566406 530.339844 500.109375 532.300781 496.601562 534.175781 C 493.089844 536.050781 489.539062 537.835938 485.945312 539.539062 C 482.347656 541.238281 478.714844 542.851562 475.039062 544.371094 C 471.363281 545.894531 467.652344 547.324219 463.90625 548.664062 C 460.164062 550.007812 456.386719 551.253906 452.582031 552.40625 C 448.773438 553.5625 444.941406 554.625 441.082031 555.589844 C 437.226562 556.554688 433.34375 557.425781 429.445312 558.203125 C 425.542969 558.980469 421.625 559.660156 417.691406 560.242188 C 413.757812 560.828125 409.808594 561.3125 405.851562 561.703125 C 401.890625 562.09375 397.925781 562.386719 393.953125 562.582031 C 389.980469 562.777344 386.003906 562.875 382.027344 562.875 C 378.050781 562.875 374.074219 562.777344 370.101562 562.582031 C 366.128906 562.386719 362.164062 562.09375 358.207031 561.703125 C 354.246094 561.3125 350.300781 560.828125 346.367188 560.242188 C 342.429688 559.660156 338.511719 558.980469 334.613281 558.203125 C 330.710938 557.425781 326.832031 556.554688 322.972656 555.589844 C 319.113281 554.625 315.28125 553.5625 311.476562 552.40625 C 307.667969 551.253906 303.894531 550.007812 300.148438 548.664062 C 296.402344 547.324219 292.691406 545.894531 289.019531 544.371094 C 285.34375 542.851562 281.707031 541.238281 278.113281 539.539062 C 274.515625 537.835938 270.964844 536.050781 267.457031 534.175781 C 263.949219 532.300781 260.488281 530.339844 257.078125 528.292969 C 253.664062 526.25 250.304688 524.121094 247 521.914062 C 243.691406 519.703125 240.441406 517.414062 237.246094 515.042969 C 234.050781 512.675781 230.914062 510.226562 227.839844 507.703125 C 224.765625 505.179688 221.753906 502.582031 218.808594 499.914062 C 215.859375 497.242188 212.980469 494.5 210.167969 491.6875 C 207.355469 488.875 204.613281 485.996094 201.941406 483.046875 C 199.269531 480.101562 196.675781 477.089844 194.152344 474.015625 C 191.628906 470.9375 189.179688 467.804688 186.8125 464.609375 C 184.441406 461.414062 182.152344 458.164062 179.941406 454.855469 C 177.730469 451.550781 175.605469 448.191406 173.558594 444.777344 C 171.515625 441.367188 169.554688 437.90625 167.679688 434.398438 C 165.804688 430.890625 164.015625 427.339844 162.316406 423.742188 C 160.617188 420.148438 159.003906 416.511719 157.480469 412.835938 C 155.960938 409.160156 154.527344 405.453125 153.1875 401.707031 C 151.847656 397.960938 150.601562 394.1875 149.445312 390.378906 C 148.292969 386.574219 147.230469 382.742188 146.265625 378.882812 C 145.296875 375.023438 144.425781 371.144531 143.652344 367.242188 C 142.875 363.339844 142.195312 359.421875 141.613281 355.488281 C 141.027344 351.554688 140.542969 347.609375 140.152344 343.648438 C 139.761719 339.691406 139.46875 335.726562 139.273438 331.753906 C 139.078125 327.78125 138.980469 323.804688 138.980469 319.828125 C 138.980469 315.847656 139.078125 311.875 139.273438 307.902344 C 139.46875 303.929688 139.761719 299.960938 140.152344 296.003906 C 140.542969 292.046875 141.027344 288.097656 141.613281 284.164062 C 142.195312 280.230469 142.875 276.3125 143.652344 272.410156 C 144.425781 268.507812 145.296875 264.628906 146.265625 260.769531 C 147.230469 256.914062 148.292969 253.082031 149.445312 249.273438 C 150.601562 245.46875 151.847656 241.691406 153.1875 237.945312 C 154.527344 234.203125 155.960938 230.492188 157.480469 226.816406 C 159.003906 223.140625 160.617188 219.507812 162.316406 215.910156 C 164.015625 212.316406 165.804688 208.761719 167.679688 205.253906 C 169.554688 201.746094 171.515625 198.289062 173.558594 194.875 C 175.605469 191.464844 177.730469 188.105469 179.941406 184.796875 C 182.152344 181.488281 184.441406 178.238281 186.8125 175.042969 C 189.179688 171.847656 191.628906 168.714844 194.152344 165.640625 C 196.675781 162.566406 199.269531 159.554688 201.941406 156.605469 C 204.613281 153.660156 207.355469 150.78125 210.167969 147.964844 C 212.980469 145.152344 215.859375 142.414062 218.808594 139.742188 C 221.753906 137.070312 224.765625 134.472656 227.839844 131.949219 C 230.914062 129.425781 234.050781 126.980469 237.246094 124.609375 C 240.441406 122.242188 243.691406 119.949219 247 117.742188 C 250.304688 115.53125 253.664062 113.402344 257.078125 111.359375 C 260.488281 109.3125 263.949219 107.355469 267.457031 105.480469 C 270.964844 103.605469 274.515625 101.816406 278.113281 100.113281 C 281.707031 98.414062 285.34375 96.804688 289.019531 95.28125 C 292.691406 93.757812 296.402344 92.328125 300.148438 90.988281 C 303.894531 89.648438 307.667969 88.398438 311.476562 87.246094 C 315.28125 86.089844 319.113281 85.03125 322.972656 84.0625 C 326.832031 83.097656 330.710938 82.226562 334.613281 81.449219 C 338.511719 80.675781 342.429688 79.996094 346.367188 79.410156 C 350.300781 78.828125 354.246094 78.339844 358.207031 77.949219 C 362.164062 77.558594 366.128906 77.269531 370.101562 77.074219 C 374.074219 76.878906 378.050781 76.78125 382.027344 76.78125 C 386.003906 76.78125 389.980469 76.878906 393.953125 77.074219 C 397.925781 77.269531 401.890625 77.558594 405.851562 77.949219 C 409.808594 78.339844 413.757812 78.828125 417.691406 79.410156 C 421.625 79.996094 425.542969 80.675781 429.445312 81.449219 C 433.34375 82.226562 437.226562 83.097656 441.082031 84.0625 C 444.941406 85.03125 448.773438 86.089844 452.582031 87.246094 C 456.386719 88.398438 460.164062 89.648438 463.90625 90.988281 C 467.652344 92.328125 471.363281 93.757812 475.039062 95.28125 C 478.714844 96.804688 482.347656 98.414062 485.945312 100.113281 C 489.539062 101.816406 493.089844 103.605469 496.601562 105.480469 C 500.109375 107.355469 503.566406 109.3125 506.980469 111.359375 C 510.390625 113.402344 513.75 115.53125 517.058594 117.742188 C 520.363281 119.949219 523.617188 122.242188 526.8125 124.609375 C 530.007812 126.980469 533.140625 129.425781 536.214844 131.949219 C 539.289062 134.472656 542.300781 137.070312 545.25 139.742188 C 548.195312 142.414062 551.074219 145.152344 553.886719 147.964844 C 556.699219 150.78125 559.441406 153.660156 562.113281 156.605469 C 564.785156 159.554688 567.382812 162.566406 569.90625 165.640625 C 572.429688 168.714844 574.875 171.847656 577.246094 175.042969 C 579.613281 178.238281 581.902344 181.488281 584.113281 184.796875 C 586.324219 188.105469 588.453125 191.464844 590.496094 194.875 C 592.542969 198.289062 594.5 201.746094 596.375 205.253906 C 598.25 208.761719 600.039062 212.316406 601.738281 215.910156 C 603.441406 219.507812 605.050781 223.140625 606.574219 226.816406 C 608.097656 230.492188 609.527344 234.203125 610.867188 237.945312 C 612.207031 241.691406 613.453125 245.46875 614.609375 249.273438 C 615.765625 253.082031 616.824219 256.914062 617.792969 260.769531 C 618.757812 264.628906 619.628906 268.507812 620.40625 272.410156 C 621.179688 276.3125 621.859375 280.230469 622.445312 284.164062 C 623.027344 288.097656 623.515625 292.046875 623.90625 296.003906 C 624.292969 299.960938 624.585938 303.929688 624.78125 307.902344 C 624.976562 311.875 625.074219 315.847656 625.074219 319.828125 Z M 625.074219 319.828125 " fill-opacity="1" fill-rule="nonzero"/><path fill="#333333" d="M 524.105469 241.304688 L 400.71875 241.304688 C 396.585938 241.304688 393.234375 244.65625 393.234375 248.789062 C 393.234375 252.921875 396.585938 256.269531 400.71875 256.269531 L 456.808594 256.269531 L 456.808594 387.140625 C 456.808594 391.273438 460.160156 394.621094 464.289062 394.621094 C 468.421875 394.621094 471.773438 391.273438 471.773438 387.140625 L 471.773438 256.269531 L 524.121094 256.269531 C 528.253906 256.269531 531.605469 252.921875 531.605469 248.789062 C 531.589844 244.640625 528.238281 241.304688 524.105469 241.304688 Z M 524.105469 241.304688 " fill-opacity="1" fill-rule="nonzero"/><path fill="#333333" d="M 325.304688 241.304688 L 236.992188 241.304688 C 232.417969 241.304688 228.710938 245.015625 228.710938 249.585938 C 228.710938 254.15625 232.417969 257.867188 236.992188 257.867188 L 327.355469 257.867188 C 343.085938 257.867188 355.839844 270.617188 355.839844 286.347656 L 355.839844 349.546875 C 355.839844 365.277344 343.085938 378.03125 327.355469 378.03125 L 236.992188 378.03125 C 232.417969 378.03125 228.710938 381.738281 228.710938 386.308594 C 228.710938 390.882812 232.417969 394.589844 236.992188 394.589844 L 325.304688 394.589844 C 350.4375 394.589844 370.804688 374.222656 370.804688 349.089844 L 370.804688 286.773438 C 370.804688 261.671875 350.4375 241.304688 325.304688 241.304688 Z M 325.304688 241.304688 " fill-opacity="1" fill-rule="nonzero"/><g fill="#333333" fill-opacity="1"><g transform="translate(133.021696, 729.013367)"><g><path d="M 7.109375 -97.71875 L 35.40625 -97.71875 C 48.988281 -97.71875 60.597656 -93.078125 70.234375 -83.796875 C 79.867188 -74.515625 84.6875 -62.890625 84.6875 -48.921875 C 84.6875 -34.859375 79.890625 -23.1875 70.296875 -13.90625 C 60.703125 -4.632812 49.070312 0 35.40625 0 L 7.109375 0 Z M 29.375 -19.890625 L 32.8125 -19.890625 C 40.9375 -19.890625 47.582031 -22.632812 52.75 -28.125 C 57.925781 -33.613281 60.554688 -40.503906 60.640625 -48.796875 C 60.640625 -57.085938 58.050781 -63.992188 52.875 -69.515625 C 47.707031 -75.046875 41.019531 -77.8125 32.8125 -77.8125 L 29.375 -77.8125 Z M 29.375 -19.890625 "/></g></g></g><g fill="#333333" fill-opacity="1"><g transform="translate(220.41203, 729.013367)"><g><path d="M 63.015625 -97.71875 L 63.015625 -78.171875 L 29.375 -78.171875 L 29.375 -58.75 L 61.59375 -58.75 L 61.59375 -39.203125 L 29.375 -39.203125 L 29.375 -19.546875 L 63.015625 -19.546875 L 63.015625 0 L 7.109375 0 L 7.109375 -97.71875 Z M 63.015625 -97.71875 "/></g></g></g><g fill="#333333" fill-opacity="1"><g transform="translate(289.092785, 729.013367)"><g><path d="M 37.65625 0 L -3.3125 -97.71875 L 21.796875 -97.71875 L 46.421875 -33.515625 L 71.0625 -97.71875 L 96.171875 -97.71875 L 55.1875 0 Z M 37.65625 0 "/></g></g></g><g fill="#333333" fill-opacity="1"><g transform="translate(381.930233, 729.013367)"><g><path d="M 0.953125 -78.171875 L 0.953125 -97.71875 L 69.640625 -97.71875 L 69.640625 -78.171875 L 46.421875 -78.171875 L 46.421875 0 L 24.15625 0 L 24.15625 -78.171875 Z M 0.953125 -78.171875 "/></g></g></g><g fill="#333333" fill-opacity="1"><g transform="translate(452.505604, 729.013367)"><g><path d="M 13.03125 -31.984375 L 10.1875 -101.859375 L 31.15625 -101.859375 L 28.3125 -31.984375 Z M 20.609375 -25.34375 C 24.398438 -25.34375 27.617188 -24.019531 30.265625 -21.375 C 32.910156 -18.726562 34.234375 -15.507812 34.234375 -11.71875 C 34.234375 -8.007812 32.910156 -4.832031 30.265625 -2.1875 C 27.617188 0.457031 24.398438 1.78125 20.609375 1.78125 C 16.898438 1.78125 13.722656 0.457031 11.078125 -2.1875 C 8.429688 -4.832031 7.109375 -8.007812 7.109375 -11.71875 C 7.109375 -15.507812 8.429688 -18.726562 11.078125 -21.375 C 13.722656 -24.019531 16.898438 -25.34375 20.609375 -25.34375 Z M 20.609375 -25.34375 "/></g></g></g><g fill="#333333" fill-opacity="1"><g transform="translate(493.832488, 729.013367)"><g><path d="M 87.875 0 L 83.265625 -57.921875 L 82.671875 -57.921875 L 62.65625 -0.59375 L 49.390625 -0.59375 L 29.375 -57.921875 L 28.78125 -57.921875 L 24.15625 0 L 1.890625 0 L 10.65625 -97.71875 L 34.34375 -97.71875 L 56.015625 -41.328125 L 77.6875 -97.71875 L 101.375 -97.71875 L 110.140625 0 Z M 87.875 0 "/></g></g></g><g fill="#333333" fill-opacity="1"><g transform="translate(605.853137, 729.013367)"><g><path d="M 63.015625 -97.71875 L 63.015625 -78.171875 L 29.375 -78.171875 L 29.375 -58.75 L 61.59375 -58.75 L 61.59375 -39.203125 L 29.375 -39.203125 L 29.375 -19.546875 L 63.015625 -19.546875 L 63.015625 0 L 7.109375 0 L 7.109375 -97.71875 Z M 63.015625 -97.71875 "/></g></g></g><g fill="#333333" fill-opacity="1"><g transform="translate(396.04017, 773.614109)"><g><path d="M 0.328125 -26.734375 L 0.328125 -33.421875 L 23.828125 -33.421875 L 23.828125 -26.734375 L 15.875 -26.734375 L 15.875 0 L 8.265625 0 L 8.265625 -26.734375 Z M 0.328125 -26.734375 "/></g></g></g><g fill="#333333" fill-opacity="1"><g transform="translate(420.188924, 773.614109)"><g><path d="M 23.453125 -9.40625 L 8.390625 -9.40625 C 8.390625 -7.945312 8.859375 -6.863281 9.796875 -6.15625 C 10.742188 -5.457031 11.773438 -5.109375 12.890625 -5.109375 C 14.046875 -5.109375 14.960938 -5.257812 15.640625 -5.5625 C 16.316406 -5.875 17.085938 -6.492188 17.953125 -7.421875 L 23.140625 -4.828125 C 20.972656 -1.203125 17.378906 0.609375 12.359375 0.609375 C 9.222656 0.609375 6.535156 -0.460938 4.296875 -2.609375 C 2.054688 -4.753906 0.9375 -7.335938 0.9375 -10.359375 C 0.9375 -13.390625 2.054688 -15.984375 4.296875 -18.140625 C 6.535156 -20.304688 9.222656 -21.390625 12.359375 -21.390625 C 15.648438 -21.390625 18.328125 -20.4375 20.390625 -18.53125 C 22.460938 -16.625 23.5 -13.90625 23.5 -10.375 C 23.5 -9.882812 23.484375 -9.5625 23.453125 -9.40625 Z M 8.59375 -13.375 L 16.484375 -13.375 C 16.328125 -14.445312 15.90625 -15.273438 15.21875 -15.859375 C 14.53125 -16.441406 13.644531 -16.734375 12.5625 -16.734375 C 11.375 -16.734375 10.425781 -16.421875 9.71875 -15.796875 C 9.019531 -15.179688 8.644531 -14.375 8.59375 -13.375 Z M 8.59375 -13.375 "/></g></g></g><g fill="#333333" fill-opacity="1"><g transform="translate(444.621301, 773.614109)"><g><path d="M 13.484375 -15.515625 C 12.140625 -15.515625 10.976562 -15.015625 10 -14.015625 C 9.03125 -13.015625 8.546875 -11.8125 8.546875 -10.40625 C 8.546875 -8.976562 9.03125 -7.765625 10 -6.765625 C 10.976562 -5.765625 12.140625 -5.265625 13.484375 -5.265625 C 14.140625 -5.265625 14.753906 -5.34375 15.328125 -5.5 C 15.910156 -5.664062 16.335938 -5.832031 16.609375 -6 L 16.96875 -6.234375 L 19.40625 -1.25 C 19.21875 -1.113281 18.953125 -0.945312 18.609375 -0.75 C 18.273438 -0.550781 17.503906 -0.273438 16.296875 0.078125 C 15.097656 0.429688 13.8125 0.609375 12.4375 0.609375 C 9.382812 0.609375 6.703125 -0.460938 4.390625 -2.609375 C 2.085938 -4.753906 0.9375 -7.328125 0.9375 -10.328125 C 0.9375 -13.359375 2.085938 -15.957031 4.390625 -18.125 C 6.703125 -20.300781 9.382812 -21.390625 12.4375 -21.390625 C 13.8125 -21.390625 15.078125 -21.226562 16.234375 -20.90625 C 17.398438 -20.582031 18.226562 -20.257812 18.71875 -19.9375 L 19.40625 -19.453125 L 16.96875 -14.546875 C 16.082031 -15.191406 14.921875 -15.515625 13.484375 -15.515625 Z M 13.484375 -15.515625 "/></g></g></g><g fill="#333333" fill-opacity="1"><g transform="translate(464.515659, 773.614109)"><g><path d="M 2.4375 0 L 2.4375 -34.84375 L 9.609375 -34.84375 L 9.609375 -18.59375 L 9.6875 -18.59375 C 11.550781 -20.457031 13.535156 -21.390625 15.640625 -21.390625 C 16.660156 -21.390625 17.675781 -21.253906 18.6875 -20.984375 C 19.707031 -20.710938 20.679688 -20.289062 21.609375 -19.71875 C 22.546875 -19.15625 23.300781 -18.351562 23.875 -17.3125 C 24.457031 -16.28125 24.75 -15.070312 24.75 -13.6875 L 24.75 0 L 17.578125 0 L 17.578125 -11.75 C 17.578125 -12.832031 17.234375 -13.773438 16.546875 -14.578125 C 15.859375 -15.390625 14.960938 -15.796875 13.859375 -15.796875 C 12.773438 -15.796875 11.796875 -15.378906 10.921875 -14.546875 C 10.046875 -13.710938 9.609375 -12.78125 9.609375 -11.75 L 9.609375 0 Z M 2.4375 0 "/></g></g></g><g fill="#333333" fill-opacity="1"><g transform="translate(491.298062, 773.614109)"><g><path d="M 2.4375 0 L 2.4375 -20.78125 L 9.609375 -20.78125 L 9.609375 -18.59375 L 9.6875 -18.59375 C 11.550781 -20.457031 13.535156 -21.390625 15.640625 -21.390625 C 16.660156 -21.390625 17.675781 -21.253906 18.6875 -20.984375 C 19.707031 -20.710938 20.679688 -20.289062 21.609375 -19.71875 C 22.546875 -19.15625 23.300781 -18.351562 23.875 -17.3125 C 24.457031 -16.28125 24.75 -15.070312 24.75 -13.6875 L 24.75 0 L 17.578125 0 L 17.578125 -11.75 C 17.578125 -12.832031 17.234375 -13.773438 16.546875 -14.578125 C 15.859375 -15.390625 14.960938 -15.796875 13.859375 -15.796875 C 12.773438 -15.796875 11.796875 -15.378906 10.921875 -14.546875 C 10.046875 -13.710938 9.609375 -12.78125 9.609375 -11.75 L 9.609375 0 Z M 2.4375 0 "/></g></g></g><g fill="#333333" fill-opacity="1"><g transform="translate(518.080464, 773.614109)"><g><path d="M 4.390625 -2.46875 C 2.085938 -4.519531 0.9375 -7.148438 0.9375 -10.359375 C 0.9375 -13.578125 2.132812 -16.21875 4.53125 -18.28125 C 6.9375 -20.351562 9.910156 -21.390625 13.453125 -21.390625 C 16.929688 -21.390625 19.863281 -20.347656 22.25 -18.265625 C 24.644531 -16.191406 25.84375 -13.5625 25.84375 -10.375 C 25.84375 -7.1875 24.675781 -4.554688 22.34375 -2.484375 C 20.007812 -0.421875 17.046875 0.609375 13.453125 0.609375 C 9.722656 0.609375 6.703125 -0.414062 4.390625 -2.46875 Z M 9.9375 -13.890625 C 9.007812 -12.972656 8.546875 -11.796875 8.546875 -10.359375 C 8.546875 -8.929688 8.988281 -7.765625 9.875 -6.859375 C 10.769531 -5.960938 11.945312 -5.515625 13.40625 -5.515625 C 14.8125 -5.515625 15.96875 -5.972656 16.875 -6.890625 C 17.78125 -7.804688 18.234375 -8.96875 18.234375 -10.375 C 18.234375 -11.800781 17.765625 -12.972656 16.828125 -13.890625 C 15.898438 -14.816406 14.757812 -15.28125 13.40625 -15.28125 C 12.03125 -15.28125 10.875 -14.816406 9.9375 -13.890625 Z M 9.9375 -13.890625 "/></g></g></g><g fill="#333333" fill-opacity="1"><g transform="translate(544.862867, 773.614109)"><g><path d="M 2.4375 0 L 2.4375 -34.84375 L 9.609375 -34.84375 L 9.609375 0 Z M 2.4375 0 "/></g></g></g><g fill="#333333" fill-opacity="1"><g transform="translate(556.896723, 773.614109)"><g><path d="M 4.390625 -2.46875 C 2.085938 -4.519531 0.9375 -7.148438 0.9375 -10.359375 C 0.9375 -13.578125 2.132812 -16.21875 4.53125 -18.28125 C 6.9375 -20.351562 9.910156 -21.390625 13.453125 -21.390625 C 16.929688 -21.390625 19.863281 -20.347656 22.25 -18.265625 C 24.644531 -16.191406 25.84375 -13.5625 25.84375 -10.375 C 25.84375 -7.1875 24.675781 -4.554688 22.34375 -2.484375 C 20.007812 -0.421875 17.046875 0.609375 13.453125 0.609375 C 9.722656 0.609375 6.703125 -0.414062 4.390625 -2.46875 Z M 9.9375 -13.890625 C 9.007812 -12.972656 8.546875 -11.796875 8.546875 -10.359375 C 8.546875 -8.929688 8.988281 -7.765625 9.875 -6.859375 C 10.769531 -5.960938 11.945312 -5.515625 13.40625 -5.515625 C 14.8125 -5.515625 15.96875 -5.972656 16.875 -6.890625 C 17.78125 -7.804688 18.234375 -8.96875 18.234375 -10.375 C 18.234375 -11.800781 17.765625 -12.972656 16.828125 -13.890625 C 15.898438 -14.816406 14.757812 -15.28125 13.40625 -15.28125 C 12.03125 -15.28125 10.875 -14.816406 9.9375 -13.890625 Z M 9.9375 -13.890625 "/></g></g></g><g fill="#333333" fill-opacity="1"><g transform="translate(583.679125, 773.614109)"><g><path d="M 1.5 5.109375 L 7.375 2.234375 C 8.457031 4.015625 10.332031 4.90625 13 4.90625 C 14.25 4.90625 15.40625 4.503906 16.46875 3.703125 C 17.53125 2.910156 18.0625 1.691406 18.0625 0.046875 L 18.0625 -1.5 C 16.800781 -0.09375 14.535156 0.609375 11.265625 0.609375 C 8.265625 0.609375 5.789062 -0.445312 3.84375 -2.5625 C 1.90625 -4.6875 0.9375 -7.285156 0.9375 -10.359375 C 0.9375 -13.441406 1.90625 -16.050781 3.84375 -18.1875 C 5.789062 -20.320312 8.265625 -21.390625 11.265625 -21.390625 C 13.941406 -21.390625 16.171875 -20.566406 17.953125 -18.921875 L 18.0625 -18.921875 L 18.0625 -20.78125 L 25.234375 -20.78125 L 25.234375 0.5625 C 25.234375 3.9375 24.113281 6.539062 21.875 8.375 C 19.632812 10.21875 16.675781 11.140625 13 11.140625 C 7.0625 11.140625 3.226562 9.128906 1.5 5.109375 Z M 9.9375 -13.890625 C 9.007812 -12.972656 8.546875 -11.796875 8.546875 -10.359375 C 8.546875 -8.929688 8.988281 -7.765625 9.875 -6.859375 C 10.769531 -5.960938 11.945312 -5.515625 13.40625 -5.515625 C 14.8125 -5.515625 15.96875 -5.972656 16.875 -6.890625 C 17.78125 -7.804688 18.234375 -8.96875 18.234375 -10.375 C 18.234375 -11.800781 17.765625 -12.972656 16.828125 -13.890625 C 15.898438 -14.816406 14.757812 -15.28125 13.40625 -15.28125 C 12.03125 -15.28125 10.875 -14.816406 9.9375 -13.890625 Z M 9.9375 -13.890625 "/></g></g></g><g fill="#333333" fill-opacity="1"><g transform="translate(611.352944, 773.614109)"><g><path d="M 3.109375 -32.359375 C 3.953125 -33.203125 4.953125 -33.625 6.109375 -33.625 C 7.273438 -33.625 8.273438 -33.203125 9.109375 -32.359375 C 9.953125 -31.523438 10.375 -30.523438 10.375 -29.359375 C 10.375 -28.203125 9.953125 -27.207031 9.109375 -26.375 C 8.273438 -25.539062 7.273438 -25.125 6.109375 -25.125 C 4.953125 -25.125 3.953125 -25.539062 3.109375 -26.375 C 2.273438 -27.207031 1.859375 -28.203125 1.859375 -29.359375 C 1.859375 -30.523438 2.273438 -31.523438 3.109375 -32.359375 Z M 2.4375 -20.78125 L 2.4375 0 L 9.609375 0 L 9.609375 -20.78125 Z M 2.4375 -20.78125 "/></g></g></g><g fill="#333333" fill-opacity="1"><g transform="translate(623.589379, 773.614109)"><g><path d="M 23.453125 -9.40625 L 8.390625 -9.40625 C 8.390625 -7.945312 8.859375 -6.863281 9.796875 -6.15625 C 10.742188 -5.457031 11.773438 -5.109375 12.890625 -5.109375 C 14.046875 -5.109375 14.960938 -5.257812 15.640625 -5.5625 C 16.316406 -5.875 17.085938 -6.492188 17.953125 -7.421875 L 23.140625 -4.828125 C 20.972656 -1.203125 17.378906 0.609375 12.359375 0.609375 C 9.222656 0.609375 6.535156 -0.460938 4.296875 -2.609375 C 2.054688 -4.753906 0.9375 -7.335938 0.9375 -10.359375 C 0.9375 -13.390625 2.054688 -15.984375 4.296875 -18.140625 C 6.535156 -20.304688 9.222656 -21.390625 12.359375 -21.390625 C 15.648438 -21.390625 18.328125 -20.4375 20.390625 -18.53125 C 22.460938 -16.625 23.5 -13.90625 23.5 -10.375 C 23.5 -9.882812 23.484375 -9.5625 23.453125 -9.40625 Z M 8.59375 -13.375 L 16.484375 -13.375 C 16.328125 -14.445312 15.90625 -15.273438 15.21875 -15.859375 C 14.53125 -16.441406 13.644531 -16.734375 12.5625 -16.734375 C 11.375 -16.734375 10.425781 -16.421875 9.71875 -15.796875 C 9.019531 -15.179688 8.644531 -14.375 8.59375 -13.375 Z M 8.59375 -13.375 "/></g></g></g><g fill="#333333" fill-opacity="1"><g transform="translate(648.021756, 773.614109)"><g><path d="M 11.46875 -21.390625 C 12.65625 -21.390625 13.828125 -21.253906 14.984375 -20.984375 C 16.148438 -20.710938 17.015625 -20.441406 17.578125 -20.171875 L 18.4375 -19.765625 L 16.078125 -15.078125 C 14.460938 -15.941406 12.925781 -16.375 11.46875 -16.375 C 10.65625 -16.375 10.078125 -16.285156 9.734375 -16.109375 C 9.398438 -15.929688 9.234375 -15.597656 9.234375 -15.109375 C 9.234375 -15.003906 9.242188 -14.894531 9.265625 -14.78125 C 9.296875 -14.675781 9.351562 -14.578125 9.4375 -14.484375 C 9.519531 -14.390625 9.59375 -14.304688 9.65625 -14.234375 C 9.726562 -14.171875 9.84375 -14.097656 10 -14.015625 C 10.164062 -13.929688 10.296875 -13.867188 10.390625 -13.828125 C 10.484375 -13.796875 10.640625 -13.738281 10.859375 -13.65625 C 11.078125 -13.570312 11.238281 -13.507812 11.34375 -13.46875 C 11.445312 -13.425781 11.628906 -13.363281 11.890625 -13.28125 C 12.148438 -13.207031 12.347656 -13.15625 12.484375 -13.125 C 13.316406 -12.882812 14.039062 -12.613281 14.65625 -12.3125 C 15.28125 -12.019531 15.9375 -11.613281 16.625 -11.09375 C 17.320312 -10.582031 17.859375 -9.9375 18.234375 -9.15625 C 18.609375 -8.375 18.796875 -7.484375 18.796875 -6.484375 C 18.796875 -1.753906 15.515625 0.609375 8.953125 0.609375 C 7.460938 0.609375 6.050781 0.378906 4.71875 -0.078125 C 3.382812 -0.535156 2.421875 -0.992188 1.828125 -1.453125 L 0.9375 -2.1875 L 3.84375 -7.09375 C 4.0625 -6.90625 4.34375 -6.679688 4.6875 -6.421875 C 5.039062 -6.160156 5.675781 -5.804688 6.59375 -5.359375 C 7.519531 -4.921875 8.320312 -4.703125 9 -4.703125 C 10.476562 -4.703125 11.21875 -5.203125 11.21875 -6.203125 C 11.21875 -6.660156 11.03125 -7.015625 10.65625 -7.265625 C 10.28125 -7.523438 9.640625 -7.816406 8.734375 -8.140625 C 7.828125 -8.460938 7.117188 -8.757812 6.609375 -9.03125 C 5.304688 -9.707031 4.273438 -10.46875 3.515625 -11.3125 C 2.765625 -12.164062 2.390625 -13.296875 2.390625 -14.703125 C 2.390625 -16.816406 3.207031 -18.457031 4.84375 -19.625 C 6.476562 -20.800781 8.6875 -21.390625 11.46875 -21.390625 Z M 11.46875 -21.390625 "/></g></g></g></svg>